<svg width="3442" height="705" viewBox="0 0 3442 705" fill="none" xmlns="http://www.w3.org/2000/svg">
<path d="M813.65 461.5L763.95 576.65H710.05L901.5 133.2H1037.65L1229.1 576.65H1174.85L1125.5 461.5H813.65ZM934.05 182.9L835 411.8H1103.8L1005.1 182.9H934.05ZM2195.9 525.9V131.45H2245.6V575.6H2125.55L1821.75 180.45H1783.6V575.6H1663.55L1359.75 180.45H1321.6V575.25H1271.9V130.75H1383.9L1688.05 525.9H1733.9V131.45H1758.75V130.75H1845.9L2150.05 525.9H2195.9ZM2364.77 132.85V576.65H2315.07V132.85H2364.77ZM2641.9 576.65V181.85H2407.75V132.15H2925.75V181.85H2691.6V576.65H2641.9ZM3018.24 461.5L2968.54 576.65H2914.64L3106.09 133.2H3242.24L3433.69 576.65H3379.44L3330.09 461.5H3018.24ZM3138.64 182.9L3039.59 411.8H3308.39L3209.69 182.9H3138.64Z" fill="black"/>
<path d="M0 165.671C0 99.5787 53.547 46 119.6 46H219.467V567.768H0V165.671Z" fill="#59C7FA"/>
<path d="M219.467 385.269C219.467 319.176 273.014 265.597 339.067 265.597H479V567.768H219.467V385.269Z" fill="#172FAB"/>
<path d="M479 46V145.926C479 212.018 425.453 265.597 359.399 265.597H219.467V46L479 46Z" fill="#2E77F7"/>
</svg>
